<mxfile host="app.diagrams.net" modified="2022-02-11T05:50:20.841Z" agent="5.0 (Windows NT 10.0; Win64; x64) AppleWebKit/537.36 (KHTML, like Gecko) Chrome/98.0.4758.82 Safari/537.36" etag="e4sLQKz8foGjJfwVaVZg" version="16.5.5" type="github">
  <diagram id="C5RBs43oDa-KdzZeNtuy" name="Page-1">
    <mxGraphModel dx="1038" dy="539" grid="1" gridSize="10" guides="1" tooltips="1" connect="1" arrows="1" fold="1" page="1" pageScale="1" pageWidth="827" pageHeight="1169" math="0" shadow="0">
      <root>
        <mxCell id="WIyWlLk6GJQsqaUBKTNV-0" />
        <mxCell id="WIyWlLk6GJQsqaUBKTNV-1" parent="WIyWlLk6GJQsqaUBKTNV-0" />
        <mxCell id="WIyWlLk6GJQsqaUBKTNV-2" value="" style="rounded=0;html=1;jettySize=auto;orthogonalLoop=1;fontSize=11;endArrow=block;endFill=0;endSize=8;strokeWidth=1;shadow=0;labelBackgroundColor=none;edgeStyle=orthogonalEdgeStyle;" parent="WIyWlLk6GJQsqaUBKTNV-1" edge="1">
          <mxGeometry relative="1" as="geometry">
            <mxPoint x="220" y="120" as="sourcePoint" />
            <mxPoint x="220" y="180" as="targetPoint" />
          </mxGeometry>
        </mxCell>
        <mxCell id="JxBvs1aVQcFAX8afxNv3-6" style="edgeStyle=orthogonalEdgeStyle;rounded=0;orthogonalLoop=1;jettySize=auto;html=1;entryX=0.5;entryY=0;entryDx=0;entryDy=0;entryPerimeter=0;" edge="1" parent="WIyWlLk6GJQsqaUBKTNV-1" source="WIyWlLk6GJQsqaUBKTNV-6" target="JxBvs1aVQcFAX8afxNv3-8">
          <mxGeometry relative="1" as="geometry">
            <mxPoint x="220" y="1610" as="targetPoint" />
            <Array as="points" />
          </mxGeometry>
        </mxCell>
        <mxCell id="WIyWlLk6GJQsqaUBKTNV-6" value="IF choice=?" style="rhombus;whiteSpace=wrap;html=1;shadow=0;fontFamily=Helvetica;fontSize=12;align=center;strokeWidth=1;spacing=6;spacingTop=-4;" parent="WIyWlLk6GJQsqaUBKTNV-1" vertex="1">
          <mxGeometry x="170" y="280" width="100" height="130" as="geometry" />
        </mxCell>
        <mxCell id="JxBvs1aVQcFAX8afxNv3-19" value="" style="edgeStyle=orthogonalEdgeStyle;rounded=0;orthogonalLoop=1;jettySize=auto;html=1;fontFamily=Helvetica;fontSize=17;" edge="1" parent="WIyWlLk6GJQsqaUBKTNV-1" source="JxBvs1aVQcFAX8afxNv3-1" target="WIyWlLk6GJQsqaUBKTNV-6">
          <mxGeometry relative="1" as="geometry" />
        </mxCell>
        <mxCell id="JxBvs1aVQcFAX8afxNv3-1" value="" style="shape=parallelogram;perimeter=parallelogramPerimeter;whiteSpace=wrap;html=1;fixedSize=1;" vertex="1" parent="WIyWlLk6GJQsqaUBKTNV-1">
          <mxGeometry x="130" y="180" width="180" height="60" as="geometry" />
        </mxCell>
        <mxCell id="JxBvs1aVQcFAX8afxNv3-10" value="" style="edgeStyle=orthogonalEdgeStyle;rounded=0;orthogonalLoop=1;jettySize=auto;html=1;" edge="1" parent="WIyWlLk6GJQsqaUBKTNV-1" source="JxBvs1aVQcFAX8afxNv3-8" target="JxBvs1aVQcFAX8afxNv3-9">
          <mxGeometry relative="1" as="geometry" />
        </mxCell>
        <mxCell id="JxBvs1aVQcFAX8afxNv3-8" value="" style="rounded=0;whiteSpace=wrap;html=1;" vertex="1" parent="WIyWlLk6GJQsqaUBKTNV-1">
          <mxGeometry x="110" y="2050" width="220" height="60" as="geometry" />
        </mxCell>
        <mxCell id="JxBvs1aVQcFAX8afxNv3-9" value="" style="ellipse;whiteSpace=wrap;html=1;rounded=0;" vertex="1" parent="WIyWlLk6GJQsqaUBKTNV-1">
          <mxGeometry x="160" y="2180" width="120" height="60" as="geometry" />
        </mxCell>
        <mxCell id="JxBvs1aVQcFAX8afxNv3-11" value="" style="ellipse;whiteSpace=wrap;html=1;fontFamily=Helvetica;" vertex="1" parent="WIyWlLk6GJQsqaUBKTNV-1">
          <mxGeometry x="160" y="40" width="120" height="80" as="geometry" />
        </mxCell>
        <mxCell id="JxBvs1aVQcFAX8afxNv3-12" value="Start" style="text;html=1;resizable=0;autosize=1;align=center;verticalAlign=middle;points=[];fillColor=none;strokeColor=none;rounded=0;fontFamily=Helvetica;fontSize=24;" vertex="1" parent="WIyWlLk6GJQsqaUBKTNV-1">
          <mxGeometry x="185" y="65" width="70" height="30" as="geometry" />
        </mxCell>
        <mxCell id="JxBvs1aVQcFAX8afxNv3-14" value="READ CHOICE" style="text;html=1;resizable=0;autosize=1;align=center;verticalAlign=middle;points=[];fillColor=none;strokeColor=none;rounded=0;fontFamily=Helvetica;fontSize=17;" vertex="1" parent="WIyWlLk6GJQsqaUBKTNV-1">
          <mxGeometry x="155" y="195" width="130" height="30" as="geometry" />
        </mxCell>
        <mxCell id="JxBvs1aVQcFAX8afxNv3-23" value="" style="edgeStyle=orthogonalEdgeStyle;rounded=0;orthogonalLoop=1;jettySize=auto;html=1;fontFamily=Helvetica;fontSize=17;exitX=1;exitY=0.5;exitDx=0;exitDy=0;" edge="1" parent="WIyWlLk6GJQsqaUBKTNV-1" source="JxBvs1aVQcFAX8afxNv3-105">
          <mxGeometry relative="1" as="geometry">
            <mxPoint x="510" y="415" as="sourcePoint" />
            <mxPoint x="760" y="2080" as="targetPoint" />
          </mxGeometry>
        </mxCell>
        <mxCell id="JxBvs1aVQcFAX8afxNv3-25" value="" style="endArrow=classic;html=1;rounded=0;fontFamily=Helvetica;fontSize=17;" edge="1" parent="WIyWlLk6GJQsqaUBKTNV-1">
          <mxGeometry width="50" height="50" relative="1" as="geometry">
            <mxPoint x="220" y="600" as="sourcePoint" />
            <mxPoint x="440" y="600" as="targetPoint" />
          </mxGeometry>
        </mxCell>
        <mxCell id="JxBvs1aVQcFAX8afxNv3-26" value="" style="endArrow=classic;html=1;rounded=0;fontFamily=Helvetica;fontSize=17;" edge="1" parent="WIyWlLk6GJQsqaUBKTNV-1">
          <mxGeometry width="50" height="50" relative="1" as="geometry">
            <mxPoint x="220" y="540" as="sourcePoint" />
            <mxPoint x="440" y="540" as="targetPoint" />
          </mxGeometry>
        </mxCell>
        <mxCell id="JxBvs1aVQcFAX8afxNv3-27" value="" style="endArrow=classic;html=1;rounded=0;fontFamily=Helvetica;fontSize=17;" edge="1" parent="WIyWlLk6GJQsqaUBKTNV-1">
          <mxGeometry width="50" height="50" relative="1" as="geometry">
            <mxPoint x="220" y="660" as="sourcePoint" />
            <mxPoint x="440" y="660" as="targetPoint" />
          </mxGeometry>
        </mxCell>
        <mxCell id="JxBvs1aVQcFAX8afxNv3-28" value="" style="endArrow=classic;html=1;rounded=0;fontFamily=Helvetica;fontSize=17;" edge="1" parent="WIyWlLk6GJQsqaUBKTNV-1">
          <mxGeometry width="50" height="50" relative="1" as="geometry">
            <mxPoint x="220" y="1360" as="sourcePoint" />
            <mxPoint x="440" y="1360" as="targetPoint" />
          </mxGeometry>
        </mxCell>
        <mxCell id="JxBvs1aVQcFAX8afxNv3-29" value="" style="endArrow=classic;html=1;rounded=0;fontFamily=Helvetica;fontSize=17;" edge="1" parent="WIyWlLk6GJQsqaUBKTNV-1">
          <mxGeometry width="50" height="50" relative="1" as="geometry">
            <mxPoint x="220" y="1300" as="sourcePoint" />
            <mxPoint x="440" y="1300" as="targetPoint" />
          </mxGeometry>
        </mxCell>
        <mxCell id="JxBvs1aVQcFAX8afxNv3-30" value="" style="endArrow=classic;html=1;rounded=0;fontFamily=Helvetica;fontSize=17;" edge="1" parent="WIyWlLk6GJQsqaUBKTNV-1">
          <mxGeometry width="50" height="50" relative="1" as="geometry">
            <mxPoint x="220" y="1540" as="sourcePoint" />
            <mxPoint x="470" y="1540" as="targetPoint" />
          </mxGeometry>
        </mxCell>
        <mxCell id="JxBvs1aVQcFAX8afxNv3-31" value="" style="endArrow=classic;html=1;rounded=0;fontFamily=Helvetica;fontSize=17;" edge="1" parent="WIyWlLk6GJQsqaUBKTNV-1">
          <mxGeometry width="50" height="50" relative="1" as="geometry">
            <mxPoint x="220" y="1180" as="sourcePoint" />
            <mxPoint x="420" y="1180" as="targetPoint" />
          </mxGeometry>
        </mxCell>
        <mxCell id="JxBvs1aVQcFAX8afxNv3-32" value="" style="endArrow=classic;html=1;rounded=0;fontFamily=Helvetica;fontSize=17;" edge="1" parent="WIyWlLk6GJQsqaUBKTNV-1">
          <mxGeometry width="50" height="50" relative="1" as="geometry">
            <mxPoint x="220" y="1420" as="sourcePoint" />
            <mxPoint x="440" y="1420" as="targetPoint" />
          </mxGeometry>
        </mxCell>
        <mxCell id="JxBvs1aVQcFAX8afxNv3-33" value="" style="endArrow=classic;html=1;rounded=0;fontFamily=Helvetica;fontSize=17;" edge="1" parent="WIyWlLk6GJQsqaUBKTNV-1">
          <mxGeometry width="50" height="50" relative="1" as="geometry">
            <mxPoint x="220" y="1240" as="sourcePoint" />
            <mxPoint x="450" y="1240" as="targetPoint" />
          </mxGeometry>
        </mxCell>
        <mxCell id="JxBvs1aVQcFAX8afxNv3-34" value="" style="endArrow=classic;html=1;rounded=0;fontFamily=Helvetica;fontSize=17;" edge="1" parent="WIyWlLk6GJQsqaUBKTNV-1">
          <mxGeometry width="50" height="50" relative="1" as="geometry">
            <mxPoint x="220" y="1600" as="sourcePoint" />
            <mxPoint x="460" y="1600" as="targetPoint" />
          </mxGeometry>
        </mxCell>
        <mxCell id="JxBvs1aVQcFAX8afxNv3-35" value="" style="endArrow=classic;html=1;rounded=0;fontFamily=Helvetica;fontSize=17;" edge="1" parent="WIyWlLk6GJQsqaUBKTNV-1">
          <mxGeometry width="50" height="50" relative="1" as="geometry">
            <mxPoint x="220" y="960" as="sourcePoint" />
            <mxPoint x="450" y="960" as="targetPoint" />
          </mxGeometry>
        </mxCell>
        <mxCell id="JxBvs1aVQcFAX8afxNv3-36" value="" style="endArrow=classic;html=1;rounded=0;fontFamily=Helvetica;fontSize=17;" edge="1" parent="WIyWlLk6GJQsqaUBKTNV-1">
          <mxGeometry width="50" height="50" relative="1" as="geometry">
            <mxPoint x="220" y="1020" as="sourcePoint" />
            <mxPoint x="400" y="1020" as="targetPoint" />
          </mxGeometry>
        </mxCell>
        <mxCell id="JxBvs1aVQcFAX8afxNv3-37" value="" style="endArrow=classic;html=1;rounded=0;fontFamily=Helvetica;fontSize=17;" edge="1" parent="WIyWlLk6GJQsqaUBKTNV-1">
          <mxGeometry width="50" height="50" relative="1" as="geometry">
            <mxPoint x="220" y="780" as="sourcePoint" />
            <mxPoint x="450" y="780" as="targetPoint" />
          </mxGeometry>
        </mxCell>
        <mxCell id="JxBvs1aVQcFAX8afxNv3-38" value="" style="endArrow=classic;html=1;rounded=0;fontFamily=Helvetica;fontSize=17;" edge="1" parent="WIyWlLk6GJQsqaUBKTNV-1">
          <mxGeometry width="50" height="50" relative="1" as="geometry">
            <mxPoint x="220" y="840" as="sourcePoint" />
            <mxPoint x="450" y="840" as="targetPoint" />
          </mxGeometry>
        </mxCell>
        <mxCell id="JxBvs1aVQcFAX8afxNv3-40" value="" style="endArrow=classic;html=1;rounded=0;fontFamily=Helvetica;fontSize=17;" edge="1" parent="WIyWlLk6GJQsqaUBKTNV-1">
          <mxGeometry width="50" height="50" relative="1" as="geometry">
            <mxPoint x="220" y="900" as="sourcePoint" />
            <mxPoint x="450" y="900" as="targetPoint" />
          </mxGeometry>
        </mxCell>
        <mxCell id="JxBvs1aVQcFAX8afxNv3-42" value="" style="endArrow=classic;html=1;rounded=0;fontFamily=Helvetica;fontSize=17;entryX=0;entryY=0.5;entryDx=0;entryDy=0;" edge="1" parent="WIyWlLk6GJQsqaUBKTNV-1" target="JxBvs1aVQcFAX8afxNv3-49">
          <mxGeometry width="50" height="50" relative="1" as="geometry">
            <mxPoint x="220" y="480" as="sourcePoint" />
            <mxPoint x="410" y="480" as="targetPoint" />
          </mxGeometry>
        </mxCell>
        <mxCell id="JxBvs1aVQcFAX8afxNv3-43" value="" style="endArrow=classic;html=1;rounded=0;fontFamily=Helvetica;fontSize=17;" edge="1" parent="WIyWlLk6GJQsqaUBKTNV-1">
          <mxGeometry width="50" height="50" relative="1" as="geometry">
            <mxPoint x="220" y="1479.5" as="sourcePoint" />
            <mxPoint x="450" y="1480" as="targetPoint" />
          </mxGeometry>
        </mxCell>
        <mxCell id="JxBvs1aVQcFAX8afxNv3-44" value="" style="endArrow=classic;html=1;rounded=0;fontFamily=Helvetica;fontSize=17;" edge="1" parent="WIyWlLk6GJQsqaUBKTNV-1">
          <mxGeometry width="50" height="50" relative="1" as="geometry">
            <mxPoint x="220" y="720" as="sourcePoint" />
            <mxPoint x="390" y="720" as="targetPoint" />
          </mxGeometry>
        </mxCell>
        <mxCell id="JxBvs1aVQcFAX8afxNv3-49" value="" style="rounded=0;whiteSpace=wrap;html=1;fontFamily=Helvetica;fontSize=17;" vertex="1" parent="WIyWlLk6GJQsqaUBKTNV-1">
          <mxGeometry x="440" y="460" width="186" height="40" as="geometry" />
        </mxCell>
        <mxCell id="JxBvs1aVQcFAX8afxNv3-56" value="" style="rounded=0;whiteSpace=wrap;html=1;fontFamily=Helvetica;fontSize=17;" vertex="1" parent="WIyWlLk6GJQsqaUBKTNV-1">
          <mxGeometry x="460" y="1580" width="180" height="40" as="geometry" />
        </mxCell>
        <mxCell id="JxBvs1aVQcFAX8afxNv3-66" value="" style="rounded=0;whiteSpace=wrap;html=1;fontFamily=Helvetica;fontSize=17;" vertex="1" parent="WIyWlLk6GJQsqaUBKTNV-1">
          <mxGeometry x="470" y="1520" width="170" height="40" as="geometry" />
        </mxCell>
        <mxCell id="JxBvs1aVQcFAX8afxNv3-68" value="" style="rounded=0;whiteSpace=wrap;html=1;fontFamily=Helvetica;fontSize=17;" vertex="1" parent="WIyWlLk6GJQsqaUBKTNV-1">
          <mxGeometry x="450" y="1460" width="190" height="40" as="geometry" />
        </mxCell>
        <mxCell id="JxBvs1aVQcFAX8afxNv3-69" value="" style="rounded=0;whiteSpace=wrap;html=1;fontFamily=Helvetica;fontSize=17;" vertex="1" parent="WIyWlLk6GJQsqaUBKTNV-1">
          <mxGeometry x="440" y="1400" width="200" height="40" as="geometry" />
        </mxCell>
        <mxCell id="JxBvs1aVQcFAX8afxNv3-70" value="" style="rounded=0;whiteSpace=wrap;html=1;fontFamily=Helvetica;fontSize=17;" vertex="1" parent="WIyWlLk6GJQsqaUBKTNV-1">
          <mxGeometry x="440" y="1340" width="210" height="40" as="geometry" />
        </mxCell>
        <mxCell id="JxBvs1aVQcFAX8afxNv3-71" value="" style="rounded=0;whiteSpace=wrap;html=1;fontFamily=Helvetica;fontSize=17;" vertex="1" parent="WIyWlLk6GJQsqaUBKTNV-1">
          <mxGeometry x="440" y="1280" width="210" height="40" as="geometry" />
        </mxCell>
        <mxCell id="JxBvs1aVQcFAX8afxNv3-72" value="" style="rounded=0;whiteSpace=wrap;html=1;fontFamily=Helvetica;fontSize=17;" vertex="1" parent="WIyWlLk6GJQsqaUBKTNV-1">
          <mxGeometry x="450" y="1220" width="200" height="40" as="geometry" />
        </mxCell>
        <mxCell id="JxBvs1aVQcFAX8afxNv3-74" value="" style="rounded=0;whiteSpace=wrap;html=1;fontFamily=Helvetica;fontSize=17;" vertex="1" parent="WIyWlLk6GJQsqaUBKTNV-1">
          <mxGeometry x="460" y="1820" width="200" height="40" as="geometry" />
        </mxCell>
        <mxCell id="JxBvs1aVQcFAX8afxNv3-75" value="" style="rounded=0;whiteSpace=wrap;html=1;fontFamily=Helvetica;fontSize=17;" vertex="1" parent="WIyWlLk6GJQsqaUBKTNV-1">
          <mxGeometry x="460" y="1770" width="200" height="40" as="geometry" />
        </mxCell>
        <mxCell id="JxBvs1aVQcFAX8afxNv3-76" value="" style="rounded=0;whiteSpace=wrap;html=1;fontFamily=Helvetica;fontSize=17;" vertex="1" parent="WIyWlLk6GJQsqaUBKTNV-1">
          <mxGeometry x="460" y="1710" width="200" height="40" as="geometry" />
        </mxCell>
        <mxCell id="JxBvs1aVQcFAX8afxNv3-77" value="" style="rounded=0;whiteSpace=wrap;html=1;fontFamily=Helvetica;fontSize=17;" vertex="1" parent="WIyWlLk6GJQsqaUBKTNV-1">
          <mxGeometry x="460" y="1650" width="200" height="40" as="geometry" />
        </mxCell>
        <mxCell id="JxBvs1aVQcFAX8afxNv3-78" value="" style="rounded=0;whiteSpace=wrap;html=1;fontFamily=Helvetica;fontSize=17;" vertex="1" parent="WIyWlLk6GJQsqaUBKTNV-1">
          <mxGeometry x="400" y="1100" width="200" height="40" as="geometry" />
        </mxCell>
        <mxCell id="JxBvs1aVQcFAX8afxNv3-79" value="" style="rounded=0;whiteSpace=wrap;html=1;fontFamily=Helvetica;fontSize=17;" vertex="1" parent="WIyWlLk6GJQsqaUBKTNV-1">
          <mxGeometry x="400" y="1050" width="200" height="40" as="geometry" />
        </mxCell>
        <mxCell id="JxBvs1aVQcFAX8afxNv3-80" value="" style="rounded=0;whiteSpace=wrap;html=1;fontFamily=Helvetica;fontSize=17;" vertex="1" parent="WIyWlLk6GJQsqaUBKTNV-1">
          <mxGeometry x="420" y="1160" width="200" height="40" as="geometry" />
        </mxCell>
        <mxCell id="JxBvs1aVQcFAX8afxNv3-81" value="" style="rounded=0;whiteSpace=wrap;html=1;fontFamily=Helvetica;fontSize=17;" vertex="1" parent="WIyWlLk6GJQsqaUBKTNV-1">
          <mxGeometry x="400" y="1000" width="200" height="40" as="geometry" />
        </mxCell>
        <mxCell id="JxBvs1aVQcFAX8afxNv3-82" value="" style="rounded=0;whiteSpace=wrap;html=1;fontFamily=Helvetica;fontSize=17;" vertex="1" parent="WIyWlLk6GJQsqaUBKTNV-1">
          <mxGeometry x="440" y="585" width="186" height="40" as="geometry" />
        </mxCell>
        <mxCell id="JxBvs1aVQcFAX8afxNv3-83" value="" style="rounded=0;whiteSpace=wrap;html=1;fontFamily=Helvetica;fontSize=17;" vertex="1" parent="WIyWlLk6GJQsqaUBKTNV-1">
          <mxGeometry x="440" y="520" width="186" height="40" as="geometry" />
        </mxCell>
        <mxCell id="JxBvs1aVQcFAX8afxNv3-84" value="" style="endArrow=classic;html=1;rounded=0;fontFamily=Helvetica;fontSize=17;" edge="1" parent="WIyWlLk6GJQsqaUBKTNV-1">
          <mxGeometry width="50" height="50" relative="1" as="geometry">
            <mxPoint x="220" y="2020" as="sourcePoint" />
            <mxPoint x="460" y="2020" as="targetPoint" />
            <Array as="points">
              <mxPoint x="340" y="2020" />
            </Array>
          </mxGeometry>
        </mxCell>
        <mxCell id="JxBvs1aVQcFAX8afxNv3-85" value="" style="endArrow=classic;html=1;rounded=0;fontFamily=Helvetica;fontSize=17;" edge="1" parent="WIyWlLk6GJQsqaUBKTNV-1">
          <mxGeometry width="50" height="50" relative="1" as="geometry">
            <mxPoint x="220" y="1960" as="sourcePoint" />
            <mxPoint x="460" y="1960" as="targetPoint" />
          </mxGeometry>
        </mxCell>
        <mxCell id="JxBvs1aVQcFAX8afxNv3-86" value="" style="endArrow=classic;html=1;rounded=0;fontFamily=Helvetica;fontSize=17;" edge="1" parent="WIyWlLk6GJQsqaUBKTNV-1">
          <mxGeometry width="50" height="50" relative="1" as="geometry">
            <mxPoint x="220" y="1840" as="sourcePoint" />
            <mxPoint x="460" y="1840" as="targetPoint" />
          </mxGeometry>
        </mxCell>
        <mxCell id="JxBvs1aVQcFAX8afxNv3-87" value="" style="endArrow=classic;html=1;rounded=0;fontFamily=Helvetica;fontSize=17;" edge="1" parent="WIyWlLk6GJQsqaUBKTNV-1">
          <mxGeometry width="50" height="50" relative="1" as="geometry">
            <mxPoint x="220" y="1780" as="sourcePoint" />
            <mxPoint x="460" y="1780" as="targetPoint" />
          </mxGeometry>
        </mxCell>
        <mxCell id="JxBvs1aVQcFAX8afxNv3-88" value="" style="endArrow=classic;html=1;rounded=0;fontFamily=Helvetica;fontSize=17;" edge="1" parent="WIyWlLk6GJQsqaUBKTNV-1">
          <mxGeometry width="50" height="50" relative="1" as="geometry">
            <mxPoint x="220" y="1720" as="sourcePoint" />
            <mxPoint x="460" y="1720" as="targetPoint" />
          </mxGeometry>
        </mxCell>
        <mxCell id="JxBvs1aVQcFAX8afxNv3-89" value="" style="endArrow=classic;html=1;rounded=0;fontFamily=Helvetica;fontSize=17;" edge="1" parent="WIyWlLk6GJQsqaUBKTNV-1">
          <mxGeometry width="50" height="50" relative="1" as="geometry">
            <mxPoint x="220" y="1660" as="sourcePoint" />
            <mxPoint x="460" y="1660" as="targetPoint" />
          </mxGeometry>
        </mxCell>
        <mxCell id="JxBvs1aVQcFAX8afxNv3-90" value="" style="endArrow=classic;html=1;rounded=0;fontFamily=Helvetica;fontSize=17;" edge="1" parent="WIyWlLk6GJQsqaUBKTNV-1">
          <mxGeometry width="50" height="50" relative="1" as="geometry">
            <mxPoint x="220" y="1900" as="sourcePoint" />
            <mxPoint x="460" y="1900" as="targetPoint" />
          </mxGeometry>
        </mxCell>
        <mxCell id="JxBvs1aVQcFAX8afxNv3-92" value="" style="rounded=0;whiteSpace=wrap;html=1;fontFamily=Helvetica;fontSize=17;" vertex="1" parent="WIyWlLk6GJQsqaUBKTNV-1">
          <mxGeometry x="460" y="1880" width="200" height="40" as="geometry" />
        </mxCell>
        <mxCell id="JxBvs1aVQcFAX8afxNv3-93" value="" style="rounded=0;whiteSpace=wrap;html=1;fontFamily=Helvetica;fontSize=17;" vertex="1" parent="WIyWlLk6GJQsqaUBKTNV-1">
          <mxGeometry x="460" y="1940" width="200" height="40" as="geometry" />
        </mxCell>
        <mxCell id="JxBvs1aVQcFAX8afxNv3-94" value="" style="rounded=0;whiteSpace=wrap;html=1;fontFamily=Helvetica;fontSize=17;" vertex="1" parent="WIyWlLk6GJQsqaUBKTNV-1">
          <mxGeometry x="460" y="2000" width="200" height="40" as="geometry" />
        </mxCell>
        <mxCell id="JxBvs1aVQcFAX8afxNv3-97" value="" style="endArrow=classic;html=1;rounded=0;fontFamily=Helvetica;fontSize=17;" edge="1" parent="WIyWlLk6GJQsqaUBKTNV-1">
          <mxGeometry width="50" height="50" relative="1" as="geometry">
            <mxPoint x="220" y="1069.5" as="sourcePoint" />
            <mxPoint x="400" y="1069.5" as="targetPoint" />
          </mxGeometry>
        </mxCell>
        <mxCell id="JxBvs1aVQcFAX8afxNv3-98" value="" style="endArrow=classic;html=1;rounded=0;fontFamily=Helvetica;fontSize=17;" edge="1" parent="WIyWlLk6GJQsqaUBKTNV-1">
          <mxGeometry width="50" height="50" relative="1" as="geometry">
            <mxPoint x="220" y="1120" as="sourcePoint" />
            <mxPoint x="400" y="1120" as="targetPoint" />
          </mxGeometry>
        </mxCell>
        <mxCell id="JxBvs1aVQcFAX8afxNv3-99" value="" style="endArrow=classic;html=1;rounded=0;fontFamily=Helvetica;fontSize=17;entryX=0;entryY=0.5;entryDx=0;entryDy=0;" edge="1" parent="WIyWlLk6GJQsqaUBKTNV-1">
          <mxGeometry width="50" height="50" relative="1" as="geometry">
            <mxPoint x="220" y="430" as="sourcePoint" />
            <mxPoint x="440" y="430" as="targetPoint" />
          </mxGeometry>
        </mxCell>
        <mxCell id="JxBvs1aVQcFAX8afxNv3-100" value="" style="rounded=0;whiteSpace=wrap;html=1;fontFamily=Helvetica;fontSize=17;" vertex="1" parent="WIyWlLk6GJQsqaUBKTNV-1">
          <mxGeometry x="440" y="640" width="186" height="40" as="geometry" />
        </mxCell>
        <mxCell id="JxBvs1aVQcFAX8afxNv3-101" value="" style="rounded=0;whiteSpace=wrap;html=1;fontFamily=Helvetica;fontSize=17;" vertex="1" parent="WIyWlLk6GJQsqaUBKTNV-1">
          <mxGeometry x="452" y="760" width="186" height="40" as="geometry" />
        </mxCell>
        <mxCell id="JxBvs1aVQcFAX8afxNv3-102" value="" style="rounded=0;whiteSpace=wrap;html=1;fontFamily=Helvetica;fontSize=17;" vertex="1" parent="WIyWlLk6GJQsqaUBKTNV-1">
          <mxGeometry x="450" y="820" width="186" height="40" as="geometry" />
        </mxCell>
        <mxCell id="JxBvs1aVQcFAX8afxNv3-103" value="" style="rounded=0;whiteSpace=wrap;html=1;fontFamily=Helvetica;fontSize=17;" vertex="1" parent="WIyWlLk6GJQsqaUBKTNV-1">
          <mxGeometry x="450" y="880" width="186" height="40" as="geometry" />
        </mxCell>
        <mxCell id="JxBvs1aVQcFAX8afxNv3-104" value="" style="rounded=0;whiteSpace=wrap;html=1;fontFamily=Helvetica;fontSize=17;" vertex="1" parent="WIyWlLk6GJQsqaUBKTNV-1">
          <mxGeometry x="390" y="700" width="186" height="40" as="geometry" />
        </mxCell>
        <mxCell id="JxBvs1aVQcFAX8afxNv3-105" value="" style="rounded=0;whiteSpace=wrap;html=1;fontFamily=Helvetica;fontSize=17;" vertex="1" parent="WIyWlLk6GJQsqaUBKTNV-1">
          <mxGeometry x="440" y="410" width="186" height="40" as="geometry" />
        </mxCell>
        <mxCell id="JxBvs1aVQcFAX8afxNv3-106" value="" style="endArrow=classic;html=1;rounded=0;fontFamily=Helvetica;fontSize=17;" edge="1" parent="WIyWlLk6GJQsqaUBKTNV-1">
          <mxGeometry width="50" height="50" relative="1" as="geometry">
            <mxPoint x="626" y="480" as="sourcePoint" />
            <mxPoint x="760" y="480" as="targetPoint" />
          </mxGeometry>
        </mxCell>
        <mxCell id="JxBvs1aVQcFAX8afxNv3-107" value="" style="endArrow=classic;html=1;rounded=0;fontFamily=Helvetica;fontSize=17;" edge="1" parent="WIyWlLk6GJQsqaUBKTNV-1">
          <mxGeometry width="50" height="50" relative="1" as="geometry">
            <mxPoint x="626" y="539.5" as="sourcePoint" />
            <mxPoint x="760" y="539.5" as="targetPoint" />
          </mxGeometry>
        </mxCell>
        <mxCell id="JxBvs1aVQcFAX8afxNv3-108" value="" style="endArrow=classic;html=1;rounded=0;fontFamily=Helvetica;fontSize=17;" edge="1" parent="WIyWlLk6GJQsqaUBKTNV-1">
          <mxGeometry width="50" height="50" relative="1" as="geometry">
            <mxPoint x="626" y="604.5" as="sourcePoint" />
            <mxPoint x="760" y="604.5" as="targetPoint" />
          </mxGeometry>
        </mxCell>
        <mxCell id="JxBvs1aVQcFAX8afxNv3-109" value="" style="endArrow=classic;html=1;rounded=0;fontFamily=Helvetica;fontSize=17;" edge="1" parent="WIyWlLk6GJQsqaUBKTNV-1">
          <mxGeometry width="50" height="50" relative="1" as="geometry">
            <mxPoint x="626" y="659.5" as="sourcePoint" />
            <mxPoint x="760" y="659.5" as="targetPoint" />
          </mxGeometry>
        </mxCell>
        <mxCell id="JxBvs1aVQcFAX8afxNv3-110" value="" style="endArrow=classic;html=1;rounded=0;fontFamily=Helvetica;fontSize=17;exitX=1;exitY=0.5;exitDx=0;exitDy=0;" edge="1" parent="WIyWlLk6GJQsqaUBKTNV-1" source="JxBvs1aVQcFAX8afxNv3-104">
          <mxGeometry width="50" height="50" relative="1" as="geometry">
            <mxPoint x="590" y="719.5" as="sourcePoint" />
            <mxPoint x="760" y="720" as="targetPoint" />
          </mxGeometry>
        </mxCell>
        <mxCell id="JxBvs1aVQcFAX8afxNv3-111" value="" style="endArrow=classic;html=1;rounded=0;fontFamily=Helvetica;fontSize=17;" edge="1" parent="WIyWlLk6GJQsqaUBKTNV-1">
          <mxGeometry width="50" height="50" relative="1" as="geometry">
            <mxPoint x="638" y="779.5" as="sourcePoint" />
            <mxPoint x="760" y="780" as="targetPoint" />
          </mxGeometry>
        </mxCell>
        <mxCell id="JxBvs1aVQcFAX8afxNv3-112" value="" style="rounded=0;whiteSpace=wrap;html=1;fontFamily=Helvetica;fontSize=17;" vertex="1" parent="WIyWlLk6GJQsqaUBKTNV-1">
          <mxGeometry x="452" y="940" width="186" height="40" as="geometry" />
        </mxCell>
        <mxCell id="JxBvs1aVQcFAX8afxNv3-116" value="" style="endArrow=classic;html=1;rounded=0;fontFamily=Helvetica;fontSize=17;entryX=1;entryY=0.5;entryDx=0;entryDy=0;" edge="1" parent="WIyWlLk6GJQsqaUBKTNV-1" target="JxBvs1aVQcFAX8afxNv3-8">
          <mxGeometry width="50" height="50" relative="1" as="geometry">
            <mxPoint x="760" y="2080" as="sourcePoint" />
            <mxPoint x="440" y="2000" as="targetPoint" />
          </mxGeometry>
        </mxCell>
        <mxCell id="JxBvs1aVQcFAX8afxNv3-117" value="" style="endArrow=classic;html=1;rounded=0;fontFamily=Helvetica;fontSize=17;" edge="1" parent="WIyWlLk6GJQsqaUBKTNV-1">
          <mxGeometry width="50" height="50" relative="1" as="geometry">
            <mxPoint x="600" y="1119.5" as="sourcePoint" />
            <mxPoint x="760" y="1120" as="targetPoint" />
          </mxGeometry>
        </mxCell>
        <mxCell id="JxBvs1aVQcFAX8afxNv3-118" value="" style="endArrow=classic;html=1;rounded=0;fontFamily=Helvetica;fontSize=17;" edge="1" parent="WIyWlLk6GJQsqaUBKTNV-1">
          <mxGeometry width="50" height="50" relative="1" as="geometry">
            <mxPoint x="620" y="1179.5" as="sourcePoint" />
            <mxPoint x="760" y="1180" as="targetPoint" />
          </mxGeometry>
        </mxCell>
        <mxCell id="JxBvs1aVQcFAX8afxNv3-119" value="" style="endArrow=classic;html=1;rounded=0;fontFamily=Helvetica;fontSize=17;" edge="1" parent="WIyWlLk6GJQsqaUBKTNV-1">
          <mxGeometry width="50" height="50" relative="1" as="geometry">
            <mxPoint x="600" y="1019.5" as="sourcePoint" />
            <mxPoint x="760" y="1020" as="targetPoint" />
          </mxGeometry>
        </mxCell>
        <mxCell id="JxBvs1aVQcFAX8afxNv3-120" value="" style="endArrow=classic;html=1;rounded=0;fontFamily=Helvetica;fontSize=17;" edge="1" parent="WIyWlLk6GJQsqaUBKTNV-1">
          <mxGeometry width="50" height="50" relative="1" as="geometry">
            <mxPoint x="640" y="959.5" as="sourcePoint" />
            <mxPoint x="762" y="960" as="targetPoint" />
          </mxGeometry>
        </mxCell>
        <mxCell id="JxBvs1aVQcFAX8afxNv3-121" value="" style="endArrow=classic;html=1;rounded=0;fontFamily=Helvetica;fontSize=17;" edge="1" parent="WIyWlLk6GJQsqaUBKTNV-1">
          <mxGeometry width="50" height="50" relative="1" as="geometry">
            <mxPoint x="636" y="839.5" as="sourcePoint" />
            <mxPoint x="758" y="840" as="targetPoint" />
          </mxGeometry>
        </mxCell>
        <mxCell id="JxBvs1aVQcFAX8afxNv3-122" value="" style="endArrow=classic;html=1;rounded=0;fontFamily=Helvetica;fontSize=17;" edge="1" parent="WIyWlLk6GJQsqaUBKTNV-1">
          <mxGeometry width="50" height="50" relative="1" as="geometry">
            <mxPoint x="638" y="899.5" as="sourcePoint" />
            <mxPoint x="760" y="900" as="targetPoint" />
          </mxGeometry>
        </mxCell>
        <mxCell id="JxBvs1aVQcFAX8afxNv3-123" value="" style="endArrow=classic;html=1;rounded=0;fontFamily=Helvetica;fontSize=17;exitX=1;exitY=0.5;exitDx=0;exitDy=0;" edge="1" parent="WIyWlLk6GJQsqaUBKTNV-1" source="JxBvs1aVQcFAX8afxNv3-79">
          <mxGeometry width="50" height="50" relative="1" as="geometry">
            <mxPoint x="620" y="1069.5" as="sourcePoint" />
            <mxPoint x="760" y="1070" as="targetPoint" />
          </mxGeometry>
        </mxCell>
        <mxCell id="JxBvs1aVQcFAX8afxNv3-124" value="" style="endArrow=classic;html=1;rounded=0;fontFamily=Helvetica;fontSize=17;" edge="1" parent="WIyWlLk6GJQsqaUBKTNV-1">
          <mxGeometry width="50" height="50" relative="1" as="geometry">
            <mxPoint x="640" y="1420" as="sourcePoint" />
            <mxPoint x="760" y="1420" as="targetPoint" />
          </mxGeometry>
        </mxCell>
        <mxCell id="JxBvs1aVQcFAX8afxNv3-125" value="" style="endArrow=classic;html=1;rounded=0;fontFamily=Helvetica;fontSize=17;" edge="1" parent="WIyWlLk6GJQsqaUBKTNV-1">
          <mxGeometry width="50" height="50" relative="1" as="geometry">
            <mxPoint x="650" y="1239.5" as="sourcePoint" />
            <mxPoint x="760" y="1240" as="targetPoint" />
          </mxGeometry>
        </mxCell>
        <mxCell id="JxBvs1aVQcFAX8afxNv3-127" value="" style="endArrow=classic;html=1;rounded=0;fontFamily=Helvetica;fontSize=17;" edge="1" parent="WIyWlLk6GJQsqaUBKTNV-1">
          <mxGeometry width="50" height="50" relative="1" as="geometry">
            <mxPoint x="650" y="1299.5" as="sourcePoint" />
            <mxPoint x="760" y="1300" as="targetPoint" />
          </mxGeometry>
        </mxCell>
        <mxCell id="JxBvs1aVQcFAX8afxNv3-128" value="" style="endArrow=classic;html=1;rounded=0;fontFamily=Helvetica;fontSize=17;" edge="1" parent="WIyWlLk6GJQsqaUBKTNV-1">
          <mxGeometry width="50" height="50" relative="1" as="geometry">
            <mxPoint x="650" y="1359.5" as="sourcePoint" />
            <mxPoint x="760" y="1360" as="targetPoint" />
          </mxGeometry>
        </mxCell>
        <mxCell id="JxBvs1aVQcFAX8afxNv3-129" value="" style="endArrow=classic;html=1;rounded=0;fontFamily=Helvetica;fontSize=17;" edge="1" parent="WIyWlLk6GJQsqaUBKTNV-1">
          <mxGeometry width="50" height="50" relative="1" as="geometry">
            <mxPoint x="640" y="1599.5" as="sourcePoint" />
            <mxPoint x="760" y="1599.5" as="targetPoint" />
          </mxGeometry>
        </mxCell>
        <mxCell id="JxBvs1aVQcFAX8afxNv3-130" value="" style="endArrow=classic;html=1;rounded=0;fontFamily=Helvetica;fontSize=17;" edge="1" parent="WIyWlLk6GJQsqaUBKTNV-1">
          <mxGeometry width="50" height="50" relative="1" as="geometry">
            <mxPoint x="640" y="1539.5" as="sourcePoint" />
            <mxPoint x="760" y="1539.5" as="targetPoint" />
          </mxGeometry>
        </mxCell>
        <mxCell id="JxBvs1aVQcFAX8afxNv3-131" value="" style="endArrow=classic;html=1;rounded=0;fontFamily=Helvetica;fontSize=17;" edge="1" parent="WIyWlLk6GJQsqaUBKTNV-1">
          <mxGeometry width="50" height="50" relative="1" as="geometry">
            <mxPoint x="660" y="1959.5" as="sourcePoint" />
            <mxPoint x="760" y="1960" as="targetPoint" />
          </mxGeometry>
        </mxCell>
        <mxCell id="JxBvs1aVQcFAX8afxNv3-132" value="" style="endArrow=classic;html=1;rounded=0;fontFamily=Helvetica;fontSize=17;" edge="1" parent="WIyWlLk6GJQsqaUBKTNV-1">
          <mxGeometry width="50" height="50" relative="1" as="geometry">
            <mxPoint x="660" y="1899.5" as="sourcePoint" />
            <mxPoint x="760" y="1900" as="targetPoint" />
          </mxGeometry>
        </mxCell>
        <mxCell id="JxBvs1aVQcFAX8afxNv3-133" value="" style="endArrow=classic;html=1;rounded=0;fontFamily=Helvetica;fontSize=17;" edge="1" parent="WIyWlLk6GJQsqaUBKTNV-1">
          <mxGeometry width="50" height="50" relative="1" as="geometry">
            <mxPoint x="660" y="1669.5" as="sourcePoint" />
            <mxPoint x="760" y="1670" as="targetPoint" />
          </mxGeometry>
        </mxCell>
        <mxCell id="JxBvs1aVQcFAX8afxNv3-134" value="" style="endArrow=classic;html=1;rounded=0;fontFamily=Helvetica;fontSize=17;" edge="1" parent="WIyWlLk6GJQsqaUBKTNV-1">
          <mxGeometry width="50" height="50" relative="1" as="geometry">
            <mxPoint x="660" y="1839.5" as="sourcePoint" />
            <mxPoint x="760" y="1840" as="targetPoint" />
          </mxGeometry>
        </mxCell>
        <mxCell id="JxBvs1aVQcFAX8afxNv3-135" value="" style="endArrow=classic;html=1;rounded=0;fontFamily=Helvetica;fontSize=17;" edge="1" parent="WIyWlLk6GJQsqaUBKTNV-1">
          <mxGeometry width="50" height="50" relative="1" as="geometry">
            <mxPoint x="660" y="1789.5" as="sourcePoint" />
            <mxPoint x="760" y="1790" as="targetPoint" />
          </mxGeometry>
        </mxCell>
        <mxCell id="JxBvs1aVQcFAX8afxNv3-137" value="" style="endArrow=classic;html=1;rounded=0;fontFamily=Helvetica;fontSize=17;" edge="1" parent="WIyWlLk6GJQsqaUBKTNV-1">
          <mxGeometry width="50" height="50" relative="1" as="geometry">
            <mxPoint x="660" y="1729.5" as="sourcePoint" />
            <mxPoint x="760" y="1730" as="targetPoint" />
          </mxGeometry>
        </mxCell>
        <mxCell id="JxBvs1aVQcFAX8afxNv3-138" value="" style="endArrow=classic;html=1;rounded=0;fontFamily=Helvetica;fontSize=17;" edge="1" parent="WIyWlLk6GJQsqaUBKTNV-1">
          <mxGeometry width="50" height="50" relative="1" as="geometry">
            <mxPoint x="660" y="2019.5" as="sourcePoint" />
            <mxPoint x="760" y="2020" as="targetPoint" />
          </mxGeometry>
        </mxCell>
        <mxCell id="JxBvs1aVQcFAX8afxNv3-139" value="" style="endArrow=classic;html=1;rounded=0;fontFamily=Helvetica;fontSize=17;" edge="1" parent="WIyWlLk6GJQsqaUBKTNV-1">
          <mxGeometry width="50" height="50" relative="1" as="geometry">
            <mxPoint x="640" y="1479.5" as="sourcePoint" />
            <mxPoint x="760" y="1479.5" as="targetPoint" />
          </mxGeometry>
        </mxCell>
        <mxCell id="JxBvs1aVQcFAX8afxNv3-140" value="case 1" style="text;html=1;resizable=0;autosize=1;align=center;verticalAlign=middle;points=[];fillColor=none;strokeColor=none;rounded=0;fontFamily=Helvetica;fontSize=17;" vertex="1" parent="WIyWlLk6GJQsqaUBKTNV-1">
          <mxGeometry x="240" y="395" width="70" height="30" as="geometry" />
        </mxCell>
        <mxCell id="JxBvs1aVQcFAX8afxNv3-141" value="case 10" style="text;html=1;resizable=0;autosize=1;align=center;verticalAlign=middle;points=[];fillColor=none;strokeColor=none;rounded=0;fontFamily=Helvetica;fontSize=17;" vertex="1" parent="WIyWlLk6GJQsqaUBKTNV-1">
          <mxGeometry x="230" y="930" width="70" height="30" as="geometry" />
        </mxCell>
        <mxCell id="JxBvs1aVQcFAX8afxNv3-142" value="case 9" style="text;html=1;resizable=0;autosize=1;align=center;verticalAlign=middle;points=[];fillColor=none;strokeColor=none;rounded=0;fontFamily=Helvetica;fontSize=17;" vertex="1" parent="WIyWlLk6GJQsqaUBKTNV-1">
          <mxGeometry x="230" y="860" width="70" height="30" as="geometry" />
        </mxCell>
        <mxCell id="JxBvs1aVQcFAX8afxNv3-143" value="case 8" style="text;html=1;resizable=0;autosize=1;align=center;verticalAlign=middle;points=[];fillColor=none;strokeColor=none;rounded=0;fontFamily=Helvetica;fontSize=17;" vertex="1" parent="WIyWlLk6GJQsqaUBKTNV-1">
          <mxGeometry x="230" y="810" width="70" height="30" as="geometry" />
        </mxCell>
        <mxCell id="JxBvs1aVQcFAX8afxNv3-144" value="case 7" style="text;html=1;resizable=0;autosize=1;align=center;verticalAlign=middle;points=[];fillColor=none;strokeColor=none;rounded=0;fontFamily=Helvetica;fontSize=17;" vertex="1" parent="WIyWlLk6GJQsqaUBKTNV-1">
          <mxGeometry x="230" y="750" width="70" height="30" as="geometry" />
        </mxCell>
        <mxCell id="JxBvs1aVQcFAX8afxNv3-145" value="case 6" style="text;html=1;resizable=0;autosize=1;align=center;verticalAlign=middle;points=[];fillColor=none;strokeColor=none;rounded=0;fontFamily=Helvetica;fontSize=17;" vertex="1" parent="WIyWlLk6GJQsqaUBKTNV-1">
          <mxGeometry x="230" y="690" width="70" height="30" as="geometry" />
        </mxCell>
        <mxCell id="JxBvs1aVQcFAX8afxNv3-146" value="case 5" style="text;html=1;resizable=0;autosize=1;align=center;verticalAlign=middle;points=[];fillColor=none;strokeColor=none;rounded=0;fontFamily=Helvetica;fontSize=17;" vertex="1" parent="WIyWlLk6GJQsqaUBKTNV-1">
          <mxGeometry x="230" y="625" width="70" height="30" as="geometry" />
        </mxCell>
        <mxCell id="JxBvs1aVQcFAX8afxNv3-147" value="case 2" style="text;html=1;resizable=0;autosize=1;align=center;verticalAlign=middle;points=[];fillColor=none;strokeColor=none;rounded=0;fontFamily=Helvetica;fontSize=17;" vertex="1" parent="WIyWlLk6GJQsqaUBKTNV-1">
          <mxGeometry x="230" y="455" width="70" height="30" as="geometry" />
        </mxCell>
        <mxCell id="JxBvs1aVQcFAX8afxNv3-148" value="case 3" style="text;html=1;resizable=0;autosize=1;align=center;verticalAlign=middle;points=[];fillColor=none;strokeColor=none;rounded=0;fontFamily=Helvetica;fontSize=17;" vertex="1" parent="WIyWlLk6GJQsqaUBKTNV-1">
          <mxGeometry x="230" y="510" width="70" height="30" as="geometry" />
        </mxCell>
        <mxCell id="JxBvs1aVQcFAX8afxNv3-149" value="case 4" style="text;html=1;resizable=0;autosize=1;align=center;verticalAlign=middle;points=[];fillColor=none;strokeColor=none;rounded=0;fontFamily=Helvetica;fontSize=17;" vertex="1" parent="WIyWlLk6GJQsqaUBKTNV-1">
          <mxGeometry x="230" y="570" width="70" height="30" as="geometry" />
        </mxCell>
      </root>
    </mxGraphModel>
  </diagram>
</mxfile>
